<svg width="800" height="400" viewBox="0 0 800 400" fill="none" xmlns="http://www.w3.org/2000/svg">
<g clip-path="url(#clip0_17_36)">
<rect width="800" height="400" fill="white"/>
<rect width="800" height="400" fill="#1E1D2A"/>
<g filter="url(#filter0_d_17_36)">
<path d="M1581.69 340.249C1648.49 340.249 1702.65 283.811 1702.65 214.192C1702.65 144.572 1648.49 88.1348 1581.69 88.1348C1519.73 88.1348 1468.65 136.703 1461.58 199.307C1456.52 198.468 1451.33 198.031 1446.03 198.031C1399.44 198.031 1360.83 231.858 1353.96 276.032C1345.87 273.653 1337.27 272.372 1328.35 272.372C1296.41 272.372 1268.51 288.819 1253.49 313.296C1244.81 309.833 1235.32 307.927 1225.38 307.927C1204.07 307.927 1184.83 316.693 1171.15 330.779C1157.19 305.789 1127.44 288.533 1092.99 288.533C1070.78 288.533 1050.52 295.706 1035.19 307.5C1014.8 278.952 973.678 259.443 926.276 259.443C858.574 259.443 803.691 299.239 803.691 348.33C803.691 397.42 858.574 437.216 926.276 437.216C964.568 437.216 998.76 424.485 1021.24 404.542C1036.82 424.259 1063.14 437.216 1092.99 437.216C1118.3 437.216 1141.08 427.898 1156.92 413.041C1168.76 438.742 1194.96 456.609 1225.38 456.609C1250.11 456.609 1272.05 444.803 1285.76 426.58C1298.34 433.351 1312.87 437.216 1328.35 437.216C1368.5 437.216 1402.27 411.227 1412.1 375.965C1422.61 380.034 1434.06 382.268 1446.03 382.268C1483.63 382.268 1516.02 360.253 1530.74 328.551C1546.23 336.058 1563.49 340.249 1581.69 340.249Z" fill="#A5C7F0"/>
</g>
<ellipse cx="550.777" cy="211.96" rx="339.968" ry="339.385" fill="#F7F8FB" fill-opacity="0.05"/>
<ellipse cx="583.377" cy="211.96" rx="292.569" ry="290.901" fill="#F7F8FB" fill-opacity="0.05"/>
<ellipse cx="605.978" cy="211.96" rx="245.169" ry="242.418" fill="#F7F8FB" fill-opacity="0.05"/>
<path d="M113.398 94.1913L116.255 109.025C116.488 110.234 117.436 111.178 118.646 111.406L133.669 114.235L118.646 117.065C117.436 117.292 116.488 118.236 116.255 119.445L113.398 134.279L110.54 119.445C110.307 118.236 109.359 117.292 108.15 117.065L93.1263 114.235L108.15 111.406C109.359 111.178 110.307 110.234 110.54 109.025L113.398 94.1913Z" fill="#C5C7CF"/>
<path d="M113.398 94.1913L116.255 109.025C116.488 110.234 117.436 111.178 118.646 111.406L133.669 114.235L118.646 117.065C117.436 117.292 116.488 118.236 116.255 119.445L113.398 134.279L110.54 119.445C110.307 118.236 109.359 117.292 108.15 117.065L93.1263 114.235L108.15 111.406C109.359 111.178 110.307 110.234 110.54 109.025L113.398 94.1913Z" fill="#C5C7CF"/>
<path d="M278.271 47L281.129 61.8337C281.362 63.0426 282.31 63.9865 283.519 64.2144L298.543 67.0439L283.519 69.8733C282.31 70.1012 281.362 71.0451 281.129 72.254L278.271 87.0877L275.414 72.254C275.181 71.0451 274.233 70.1012 273.023 69.8733L258 67.0439L273.023 64.2144C274.233 63.9865 275.181 63.0426 275.414 61.8337L278.271 47Z" fill="#C5C7CF"/>
<path d="M246.271 146L249.129 160.834C249.362 162.043 250.31 162.987 251.519 163.214L266.543 166.044L251.519 168.873C250.31 169.101 249.362 170.045 249.129 171.254L246.271 186.088L243.414 171.254C243.181 170.045 242.233 169.101 241.023 168.873L226 166.044L241.023 163.214C242.233 162.987 243.181 162.043 243.414 160.834L246.271 146Z" fill="#C5C7CF"/>
<path d="M348.375 312L350.77 324.428C351.003 325.637 351.95 326.581 353.16 326.809L365.751 329.18L353.16 331.552C351.95 331.78 351.003 332.724 350.77 333.932L348.375 346.361L345.981 333.932C345.748 332.724 344.801 331.78 343.591 331.552L331 329.18L343.591 326.809C344.801 326.581 345.748 325.637 345.981 324.428L348.375 312Z" fill="#C5C7CF"/>
<path d="M266.688 286L267.692 291.213C267.925 292.422 268.873 293.365 270.082 293.593L275.375 294.59L270.082 295.587C268.873 295.815 267.925 296.759 267.692 297.968L266.688 303.18L265.684 297.968C265.451 296.759 264.503 295.815 263.293 295.587L258 294.59L263.293 293.593C264.503 293.365 265.451 292.422 265.684 291.213L266.688 286Z" fill="#C5C7CF"/>
<path d="M347.584 180L349.051 187.618C349.284 188.827 350.232 189.771 351.442 189.999L359.167 191.454L351.442 192.909C350.232 193.136 349.284 194.08 349.051 195.289L347.584 202.907L346.116 195.289C345.883 194.08 344.935 193.136 343.726 192.909L336 191.454L343.726 189.999C344.935 189.771 345.883 188.827 346.116 187.618L347.584 180Z" fill="#C5C7CF"/>
<path d="M202.688 100L203.692 105.213C203.925 106.422 204.873 107.365 206.082 107.593L211.375 108.59L206.082 109.587C204.873 109.815 203.925 110.759 203.692 111.968L202.688 117.18L201.684 111.968C201.451 110.759 200.503 109.815 199.293 109.587L194 108.59L199.293 107.593C200.503 107.365 201.451 106.422 201.684 105.213L202.688 100Z" fill="#C5C7CF"/>
<path d="M309.688 282L310.692 287.213C310.925 288.422 311.873 289.365 313.082 289.593L318.375 290.59L313.082 291.587C311.873 291.815 310.925 292.759 310.692 293.968L309.688 299.18L308.684 293.968C308.451 292.759 307.503 291.815 306.293 291.587L301 290.59L306.293 289.593C307.503 289.365 308.451 288.422 308.684 287.213L309.688 282Z" fill="#C5C7CF"/>
<path d="M172.688 191L173.692 196.213C173.925 197.422 174.873 198.365 176.082 198.593L181.375 199.59L176.082 200.587C174.873 200.815 173.925 201.759 173.692 202.968L172.688 208.18L171.684 202.968C171.451 201.759 170.503 200.815 169.293 200.587L164 199.59L169.293 198.593C170.503 198.365 171.451 197.422 171.684 196.213L172.688 191Z" fill="#C5C7CF"/>
<path d="M290.584 208L292.051 215.618C292.284 216.827 293.232 217.771 294.442 217.999L302.167 219.454L294.442 220.909C293.232 221.136 292.284 222.08 292.051 223.289L290.584 230.907L289.116 223.289C288.883 222.08 287.935 221.136 286.726 220.909L279 219.454L286.726 217.999C287.935 217.771 288.883 216.827 289.116 215.618L290.584 208Z" fill="#C5C7CF"/>
<path d="M92.5836 196L94.0511 203.618C94.284 204.827 95.2319 205.771 96.4417 205.999L104.167 207.454L96.4417 208.909C95.2319 209.136 94.284 210.08 94.0511 211.289L92.5836 218.907L91.1161 211.289C90.8832 210.08 89.9354 209.136 88.7255 208.909L81 207.454L88.7255 205.999C89.9354 205.771 90.8832 204.827 91.1161 203.618L92.5836 196Z" fill="#C5C7CF"/>
<path d="M181.375 286L183.77 298.428C184.003 299.637 184.95 300.581 186.16 300.809L198.751 303.18L186.16 305.552C184.95 305.78 184.003 306.724 183.77 307.932L181.375 320.361L178.981 307.932C178.748 306.724 177.801 305.78 176.591 305.552L164 303.18L176.591 300.809C177.801 300.581 178.748 299.637 178.981 298.428L181.375 286Z" fill="#C5C7CF"/>
</g>
<defs>
<filter id="filter0_d_17_36" x="798.691" y="83.1348" width="908.954" height="378.475" filterUnits="userSpaceOnUse" color-interpolation-filters="sRGB">
<feFlood flood-opacity="0" result="BackgroundImageFix"/>
<feColorMatrix in="SourceAlpha" type="matrix" values="0 0 0 0 0 0 0 0 0 0 0 0 0 0 0 0 0 0 127 0" result="hardAlpha"/>
<feOffset/>
<feGaussianBlur stdDeviation="2.5"/>
<feComposite in2="hardAlpha" operator="out"/>
<feColorMatrix type="matrix" values="0 0 0 0 0 0 0 0 0 0 0 0 0 0 0 0 0 0 0.1 0"/>
<feBlend mode="normal" in2="BackgroundImageFix" result="effect1_dropShadow_17_36"/>
<feBlend mode="normal" in="SourceGraphic" in2="effect1_dropShadow_17_36" result="shape"/>
</filter>
<clipPath id="clip0_17_36">
<rect width="800" height="400" fill="white"/>
</clipPath>
</defs>
</svg>
