<svg width="800" height="400" viewBox="0 0 800 400" fill="none" xmlns="http://www.w3.org/2000/svg">
<g clip-path="url(#clip0_17_3)">
<rect width="800" height="400" fill="white"/>
<rect width="800" height="400" fill="#5E9AE3"/>
<g filter="url(#filter0_d_17_3)">
<path d="M761.695 341.249C828.494 341.249 882.645 284.811 882.645 215.192C882.645 145.572 828.494 89.1347 761.695 89.1347C699.728 89.1347 648.645 137.703 641.579 200.307C636.524 199.468 631.331 199.031 626.035 199.031C579.436 199.031 540.829 232.858 533.958 277.032C525.865 274.653 517.267 273.372 508.353 273.372C476.414 273.372 448.512 289.819 433.491 314.296C424.808 310.833 415.32 308.927 405.382 308.927C384.072 308.927 364.832 317.693 351.15 331.778C337.191 306.789 307.439 289.533 272.991 289.533C250.781 289.533 230.523 296.706 215.191 308.5C194.795 279.952 153.677 260.443 106.276 260.443C38.5742 260.443 -16.3088 300.239 -16.3088 349.33C-16.3088 398.42 38.5742 438.216 106.276 438.216C144.568 438.216 178.76 425.485 201.239 405.542C216.817 425.259 243.141 438.216 272.991 438.216C298.304 438.216 321.082 428.898 336.921 414.041C348.756 439.742 374.959 457.609 405.382 457.609C430.113 457.609 452.055 445.803 465.757 427.58C478.336 434.351 492.87 438.216 508.353 438.216C548.504 438.216 582.274 412.227 592.096 376.965C602.612 381.034 614.06 383.268 626.035 383.268C663.627 383.268 696.018 361.253 710.743 329.551C726.228 337.058 743.492 341.249 761.695 341.249Z" fill="#A5C7F0"/>
</g>
<g filter="url(#filter1_d_17_3)">
<path fill-rule="evenodd" clip-rule="evenodd" d="M820.536 383.268C887.334 383.268 941.486 326.83 941.486 257.211C941.486 187.591 887.334 131.154 820.536 131.154C758.569 131.154 707.486 179.722 700.42 242.326C695.365 241.487 690.172 241.05 684.875 241.05C638.277 241.05 599.669 274.877 592.798 319.051C584.706 316.672 576.107 315.391 567.194 315.391C535.255 315.391 507.352 331.838 492.332 356.315C483.648 352.852 474.161 350.946 464.223 350.946C442.912 350.946 423.672 359.712 409.991 373.798C396.032 348.808 366.28 331.552 331.831 331.552C309.621 331.552 289.364 338.725 274.032 350.519C253.636 321.971 212.518 302.462 165.116 302.462C97.4148 302.462 42.5317 342.258 42.5317 391.348C42.5317 440.439 97.4148 480.235 165.116 480.235C203.409 480.235 237.6 467.504 260.08 447.561C275.658 467.278 301.981 480.235 331.831 480.235C357.145 480.235 379.923 470.917 395.761 456.06C407.597 481.761 433.8 499.628 464.223 499.628C488.953 499.628 510.895 487.822 524.598 469.599C537.176 476.37 551.711 480.235 567.194 480.235C607.344 480.235 641.115 454.246 650.936 418.984C661.453 423.053 672.9 425.287 684.875 425.287C722.467 425.287 754.859 403.272 769.583 371.57C785.068 379.077 802.332 383.268 820.536 383.268Z" fill="#FBFDFF"/>
</g>
<ellipse cx="300.777" cy="211.96" rx="339.968" ry="339.385" fill="#F7F8FB" fill-opacity="0.05"/>
<ellipse cx="253.377" cy="211.96" rx="292.569" ry="290.901" fill="#F7F8FB" fill-opacity="0.05"/>
<ellipse cx="205.978" cy="211.96" rx="245.169" ry="242.418" fill="#F7F8FB" fill-opacity="0.05"/>
</g>
<defs>
<filter id="filter0_d_17_3" x="-21.3088" y="84.1347" width="908.954" height="378.475" filterUnits="userSpaceOnUse" color-interpolation-filters="sRGB">
<feFlood flood-opacity="0" result="BackgroundImageFix"/>
<feColorMatrix in="SourceAlpha" type="matrix" values="0 0 0 0 0 0 0 0 0 0 0 0 0 0 0 0 0 0 127 0" result="hardAlpha"/>
<feOffset/>
<feGaussianBlur stdDeviation="2.5"/>
<feComposite in2="hardAlpha" operator="out"/>
<feColorMatrix type="matrix" values="0 0 0 0 0 0 0 0 0 0 0 0 0 0 0 0 0 0 0.1 0"/>
<feBlend mode="normal" in2="BackgroundImageFix" result="effect1_dropShadow_17_3"/>
<feBlend mode="normal" in="SourceGraphic" in2="effect1_dropShadow_17_3" result="shape"/>
</filter>
<filter id="filter1_d_17_3" x="36.5317" y="125.154" width="910.954" height="380.475" filterUnits="userSpaceOnUse" color-interpolation-filters="sRGB">
<feFlood flood-opacity="0" result="BackgroundImageFix"/>
<feColorMatrix in="SourceAlpha" type="matrix" values="0 0 0 0 0 0 0 0 0 0 0 0 0 0 0 0 0 0 127 0" result="hardAlpha"/>
<feOffset/>
<feGaussianBlur stdDeviation="3"/>
<feComposite in2="hardAlpha" operator="out"/>
<feColorMatrix type="matrix" values="0 0 0 0 0 0 0 0 0 0 0 0 0 0 0 0 0 0 0.1 0"/>
<feBlend mode="normal" in2="BackgroundImageFix" result="effect1_dropShadow_17_3"/>
<feBlend mode="normal" in="SourceGraphic" in2="effect1_dropShadow_17_3" result="shape"/>
</filter>
<clipPath id="clip0_17_3">
<rect width="800" height="400" fill="white"/>
</clipPath>
</defs>
</svg>
